<?xml version="1.0" encoding="utf-8" standalone="no"?>
<!DOCTYPE svg PUBLIC "-//W3C//DTD SVG 1.1//EN"
  "http://www.w3.org/Graphics/SVG/1.1/DTD/svg11.dtd">
<svg xmlns:xlink="http://www.w3.org/1999/xlink" width="502.2pt" height="138.6pt" viewBox="0 0 502.2 138.6" xmlns="http://www.w3.org/2000/svg" version="1.1">
 <metadata>
  <rdf:RDF xmlns:dc="http://purl.org/dc/elements/1.1/" xmlns:cc="http://creativecommons.org/ns#" xmlns:rdf="http://www.w3.org/1999/02/22-rdf-syntax-ns#">
   <cc:Work>
    <dc:type rdf:resource="http://purl.org/dc/dcmitype/StillImage"/>
    <dc:date>2024-05-21T12:02:05.743009</dc:date>
    <dc:format>image/svg+xml</dc:format>
    <dc:creator>
     <cc:Agent>
      <dc:title>Matplotlib v3.7.1, https://matplotlib.org/</dc:title>
     </cc:Agent>
    </dc:creator>
   </cc:Work>
  </rdf:RDF>
 </metadata>
 <defs>
  <style type="text/css">*{stroke-linejoin: round; stroke-linecap: butt}</style>
 </defs>
 <g id="figure_1">
  <g id="patch_1">
   <path d="M 0 138.6 
L 502.2 138.6 
L 502.2 0 
L 0 0 
L 0 138.6 
z
" style="fill: none"/>
  </g>
  <g id="axes_1">
   <g id="patch_2">
    <path d="M 50.22 106.26 
C 56.87925 106.26 63.266651 103.826038 67.975451 99.494167 
C 72.684252 95.162295 75.33 89.286192 75.33 83.16 
C 75.33 77.033808 72.684252 71.157705 67.975451 66.825833 
C 63.266651 62.493962 56.87925 60.06 50.22 60.06 
C 43.56075 60.06 37.173349 62.493962 32.464549 66.825833 
C 27.755748 71.157705 25.11 77.033808 25.11 83.16 
C 25.11 89.286192 27.755748 95.162295 32.464549 99.494167 
C 37.173349 103.826038 43.56075 106.26 50.22 106.26 
z
" clip-path="url(#p329f4479c4)" style="fill: #ff7f0e; stroke: #ff7f0e; stroke-linejoin: miter"/>
   </g>
   <g id="patch_3">
    <path d="M 150.66 106.26 
C 157.31925 106.26 163.706651 103.826038 168.415451 99.494167 
C 173.124252 95.162295 175.77 89.286192 175.77 83.16 
C 175.77 77.033808 173.124252 71.157705 168.415451 66.825833 
C 163.706651 62.493962 157.31925 60.06 150.66 60.06 
C 144.00075 60.06 137.613349 62.493962 132.904549 66.825833 
C 128.195748 71.157705 125.55 77.033808 125.55 83.16 
C 125.55 89.286192 128.195748 95.162295 132.904549 99.494167 
C 137.613349 103.826038 144.00075 106.26 150.66 106.26 
z
" clip-path="url(#p329f4479c4)" style="fill: #ff7f0e; stroke: #ff7f0e; stroke-linejoin: miter"/>
   </g>
   <g id="patch_4">
    <path d="M 251.1 106.26 
C 257.75925 106.26 264.146651 103.826038 268.855451 99.494167 
C 273.564252 95.162295 276.21 89.286192 276.21 83.16 
C 276.21 77.033808 273.564252 71.157705 268.855451 66.825833 
C 264.146651 62.493962 257.75925 60.06 251.1 60.06 
C 244.44075 60.06 238.053349 62.493962 233.344549 66.825833 
C 228.635748 71.157705 225.99 77.033808 225.99 83.16 
C 225.99 89.286192 228.635748 95.162295 233.344549 99.494167 
C 238.053349 103.826038 244.44075 106.26 251.1 106.26 
z
" clip-path="url(#p329f4479c4)" style="fill: #ff7f0e; stroke: #ff7f0e; stroke-linejoin: miter"/>
   </g>
   <g id="patch_5">
    <path d="M 351.54 106.26 
C 358.19925 106.26 364.586651 103.826038 369.295451 99.494167 
C 374.004252 95.162295 376.65 89.286192 376.65 83.16 
C 376.65 77.033808 374.004252 71.157705 369.295451 66.825833 
C 364.586651 62.493962 358.19925 60.06 351.54 60.06 
C 344.88075 60.06 338.493349 62.493962 333.784549 66.825833 
C 329.075748 71.157705 326.43 77.033808 326.43 83.16 
C 326.43 89.286192 329.075748 95.162295 333.784549 99.494167 
C 338.493349 103.826038 344.88075 106.26 351.54 106.26 
z
" clip-path="url(#p329f4479c4)" style="fill: #ff7f0e; stroke: #ff7f0e; stroke-linejoin: miter"/>
   </g>
   <g id="patch_6">
    <path d="M 451.98 106.26 
C 458.63925 106.26 465.026651 103.826038 469.735451 99.494167 
C 474.444252 95.162295 477.09 89.286192 477.09 83.16 
C 477.09 77.033808 474.444252 71.157705 469.735451 66.825833 
C 465.026651 62.493962 458.63925 60.06 451.98 60.06 
C 445.32075 60.06 438.933349 62.493962 434.224549 66.825833 
C 429.515748 71.157705 426.87 77.033808 426.87 83.16 
C 426.87 89.286192 429.515748 95.162295 434.224549 99.494167 
C 438.933349 103.826038 445.32075 106.26 451.98 106.26 
z
" clip-path="url(#p329f4479c4)" style="fill: #ff7f0e; stroke: #ff7f0e; stroke-linejoin: miter"/>
   </g>
   <g id="patch_7">
    <path d="M 75.33 83.16 
L 125.55 83.16 
L 125.55 36.96 
L 75.33 36.96 
z
" clip-path="url(#p329f4479c4)" style="fill: #2ca02c; stroke: #2ca02c; stroke-linejoin: miter"/>
   </g>
   <g id="patch_8">
    <path d="M 175.77 83.16 
L 225.99 83.16 
L 225.99 36.96 
L 175.77 36.96 
z
" clip-path="url(#p329f4479c4)" style="fill: #2ca02c; stroke: #2ca02c; stroke-linejoin: miter"/>
   </g>
   <g id="patch_9">
    <path d="M 276.21 83.16 
L 326.43 83.16 
L 326.43 36.96 
L 276.21 36.96 
z
" clip-path="url(#p329f4479c4)" style="fill: #2ca02c; stroke: #2ca02c; stroke-linejoin: miter"/>
   </g>
   <g id="patch_10">
    <path d="M 376.65 83.16 
L 426.87 83.16 
L 426.87 36.96 
L 376.65 36.96 
z
" clip-path="url(#p329f4479c4)" style="fill: #2ca02c; stroke: #2ca02c; stroke-linejoin: miter"/>
   </g>
   <g id="text_1">
    <!-- $|0\rangle$ -->
    <g style="fill: #ffffff" transform="translate(42 106.26) scale(0.12 -0.12)">
     <defs>
      <path id="DejaVuSans-7c" d="M 1344 4891 
L 1344 -1509 
L 813 -1509 
L 813 4891 
L 1344 4891 
z
" transform="scale(0.015625)"/>
      <path id="DejaVuSans-30" d="M 2034 4250 
Q 1547 4250 1301 3770 
Q 1056 3291 1056 2328 
Q 1056 1369 1301 889 
Q 1547 409 2034 409 
Q 2525 409 2770 889 
Q 3016 1369 3016 2328 
Q 3016 3291 2770 3770 
Q 2525 4250 2034 4250 
z
M 2034 4750 
Q 2819 4750 3233 4129 
Q 3647 3509 3647 2328 
Q 3647 1150 3233 529 
Q 2819 -91 2034 -91 
Q 1250 -91 836 529 
Q 422 1150 422 2328 
Q 422 3509 836 4129 
Q 1250 4750 2034 4750 
z
" transform="scale(0.015625)"/>
      <path id="DejaVuSans-27e9" d="M 1925 2006 
L 1044 -844 
L 513 -844 
L 1394 2006 
L 513 4856 
L 1044 4856 
L 1925 2006 
z
" transform="scale(0.015625)"/>
     </defs>
     <use xlink:href="#DejaVuSans-7c" transform="translate(0 0.578125)"/>
     <use xlink:href="#DejaVuSans-30" transform="translate(33.691406 0.578125)"/>
     <use xlink:href="#DejaVuSans-27e9" transform="translate(97.314453 0.578125)"/>
    </g>
   </g>
   <g id="text_2">
    <!-- $|1\rangle$ -->
    <g style="fill: #ffffff" transform="translate(142.44 106.26) scale(0.12 -0.12)">
     <defs>
      <path id="DejaVuSans-31" d="M 794 531 
L 1825 531 
L 1825 4091 
L 703 3866 
L 703 4441 
L 1819 4666 
L 2450 4666 
L 2450 531 
L 3481 531 
L 3481 0 
L 794 0 
L 794 531 
z
" transform="scale(0.015625)"/>
     </defs>
     <use xlink:href="#DejaVuSans-7c" transform="translate(0 0.578125)"/>
     <use xlink:href="#DejaVuSans-31" transform="translate(33.691406 0.578125)"/>
     <use xlink:href="#DejaVuSans-27e9" transform="translate(97.314453 0.578125)"/>
    </g>
   </g>
   <g id="text_3">
    <!-- $|2\rangle$ -->
    <g style="fill: #ffffff" transform="translate(242.88 106.26) scale(0.12 -0.12)">
     <defs>
      <path id="DejaVuSans-32" d="M 1228 531 
L 3431 531 
L 3431 0 
L 469 0 
L 469 531 
Q 828 903 1448 1529 
Q 2069 2156 2228 2338 
Q 2531 2678 2651 2914 
Q 2772 3150 2772 3378 
Q 2772 3750 2511 3984 
Q 2250 4219 1831 4219 
Q 1534 4219 1204 4116 
Q 875 4013 500 3803 
L 500 4441 
Q 881 4594 1212 4672 
Q 1544 4750 1819 4750 
Q 2544 4750 2975 4387 
Q 3406 4025 3406 3419 
Q 3406 3131 3298 2873 
Q 3191 2616 2906 2266 
Q 2828 2175 2409 1742 
Q 1991 1309 1228 531 
z
" transform="scale(0.015625)"/>
     </defs>
     <use xlink:href="#DejaVuSans-7c" transform="translate(0 0.578125)"/>
     <use xlink:href="#DejaVuSans-32" transform="translate(33.691406 0.578125)"/>
     <use xlink:href="#DejaVuSans-27e9" transform="translate(97.314453 0.578125)"/>
    </g>
   </g>
   <g id="text_4">
    <!-- $|3\rangle$ -->
    <g style="fill: #ffffff" transform="translate(343.32 106.26) scale(0.12 -0.12)">
     <defs>
      <path id="DejaVuSans-33" d="M 2597 2516 
Q 3050 2419 3304 2112 
Q 3559 1806 3559 1356 
Q 3559 666 3084 287 
Q 2609 -91 1734 -91 
Q 1441 -91 1130 -33 
Q 819 25 488 141 
L 488 750 
Q 750 597 1062 519 
Q 1375 441 1716 441 
Q 2309 441 2620 675 
Q 2931 909 2931 1356 
Q 2931 1769 2642 2001 
Q 2353 2234 1838 2234 
L 1294 2234 
L 1294 2753 
L 1863 2753 
Q 2328 2753 2575 2939 
Q 2822 3125 2822 3475 
Q 2822 3834 2567 4026 
Q 2313 4219 1838 4219 
Q 1578 4219 1281 4162 
Q 984 4106 628 3988 
L 628 4550 
Q 988 4650 1302 4700 
Q 1616 4750 1894 4750 
Q 2613 4750 3031 4423 
Q 3450 4097 3450 3541 
Q 3450 3153 3228 2886 
Q 3006 2619 2597 2516 
z
" transform="scale(0.015625)"/>
     </defs>
     <use xlink:href="#DejaVuSans-7c" transform="translate(0 0.578125)"/>
     <use xlink:href="#DejaVuSans-33" transform="translate(33.691406 0.578125)"/>
     <use xlink:href="#DejaVuSans-27e9" transform="translate(97.314453 0.578125)"/>
    </g>
   </g>
   <g id="text_5">
    <!-- $|4\rangle$ -->
    <g style="fill: #ffffff" transform="translate(443.76 106.26) scale(0.12 -0.12)">
     <defs>
      <path id="DejaVuSans-34" d="M 2419 4116 
L 825 1625 
L 2419 1625 
L 2419 4116 
z
M 2253 4666 
L 3047 4666 
L 3047 1625 
L 3713 1625 
L 3713 1100 
L 3047 1100 
L 3047 0 
L 2419 0 
L 2419 1100 
L 313 1100 
L 313 1709 
L 2253 4666 
z
" transform="scale(0.015625)"/>
     </defs>
     <use xlink:href="#DejaVuSans-7c" transform="translate(0 0.578125)"/>
     <use xlink:href="#DejaVuSans-34" transform="translate(33.691406 0.578125)"/>
     <use xlink:href="#DejaVuSans-27e9" transform="translate(97.314453 0.578125)"/>
    </g>
   </g>
   <g id="text_6">
    <!-- $U_0$ -->
    <g style="fill: #ffffff" transform="translate(93.18 60.06) scale(0.12 -0.12)">
     <defs>
      <path id="DejaVuSans-Oblique-55" d="M 991 4666 
L 1625 4666 
L 1075 1831 
Q 1041 1641 1027 1517 
Q 1013 1394 1013 1300 
Q 1013 869 1253 645 
Q 1494 422 1959 422 
Q 2563 422 2898 753 
Q 3234 1084 3378 1831 
L 3928 4666 
L 4563 4666 
L 4000 1753 
Q 3816 809 3300 359 
Q 2784 -91 1888 -91 
Q 1188 -91 780 261 
Q 372 613 372 1216 
Q 372 1325 387 1461 
Q 403 1597 434 1753 
L 991 4666 
z
" transform="scale(0.015625)"/>
     </defs>
     <use xlink:href="#DejaVuSans-Oblique-55" transform="translate(0 0.09375)"/>
     <use xlink:href="#DejaVuSans-30" transform="translate(73.193359 -16.3125) scale(0.7)"/>
    </g>
   </g>
   <g id="text_7">
    <!-- $U_1$ -->
    <g style="fill: #ffffff" transform="translate(193.62 60.06) scale(0.12 -0.12)">
     <use xlink:href="#DejaVuSans-Oblique-55" transform="translate(0 0.09375)"/>
     <use xlink:href="#DejaVuSans-31" transform="translate(73.193359 -16.3125) scale(0.7)"/>
    </g>
   </g>
   <g id="text_8">
    <!-- $U_2$ -->
    <g style="fill: #ffffff" transform="translate(294.06 60.06) scale(0.12 -0.12)">
     <use xlink:href="#DejaVuSans-Oblique-55" transform="translate(0 0.09375)"/>
     <use xlink:href="#DejaVuSans-32" transform="translate(73.193359 -16.3125) scale(0.7)"/>
    </g>
   </g>
   <g id="text_9">
    <!-- $U_3$ -->
    <g style="fill: #ffffff" transform="translate(394.5 60.06) scale(0.12 -0.12)">
     <use xlink:href="#DejaVuSans-Oblique-55" transform="translate(0 0.09375)"/>
     <use xlink:href="#DejaVuSans-33" transform="translate(73.193359 -16.3125) scale(0.7)"/>
    </g>
   </g>
   <g id="patch_11">
    <path d="M 50.22 19.942062 
Q 50.22 50.549746 50.22 80.039396 
" style="fill: none; stroke: #e040fb; stroke-linecap: round"/>
    <path d="M 52.22 76.039396 
L 50.22 80.039396 
L 48.22 76.039396 
" style="fill: none; stroke: #e040fb; stroke-linecap: round"/>
   </g>
   <g id="text_10">
    <!-- $α_0$ -->
    <g style="fill: #ffffff" transform="translate(44.52 13.86) scale(0.1 -0.1)">
     <defs>
      <path id="DejaVuSans-Oblique-3b1" d="M 2619 1628 
L 2622 2350 
Q 2625 3088 2069 3091 
Q 1653 3094 1394 2747 
Q 1069 2319 959 1747 
Q 825 1059 994 731 
Q 1169 397 1547 397 
Q 1966 397 2319 1063 
L 2619 1628 
z
M 2166 3578 
Q 3141 3594 3128 2584 
Q 3128 2584 3616 3500 
L 4128 3500 
L 3119 1603 
L 3109 919 
Q 3109 766 3194 638 
Q 3291 488 3391 488 
L 3669 488 
L 3575 0 
L 3228 0 
Q 2934 0 2722 263 
Q 2622 394 2619 669 
Q 2416 334 2066 50 
Q 1900 -81 1453 -78 
Q 722 -72 456 397 
Q 184 884 353 1747 
Q 534 2675 1009 3097 
Q 1544 3569 2166 3578 
z
" transform="scale(0.015625)"/>
     </defs>
     <use xlink:href="#DejaVuSans-Oblique-3b1" transform="translate(0 0.84375)"/>
     <use xlink:href="#DejaVuSans-30" transform="translate(65.917969 -15.5625) scale(0.7)"/>
    </g>
   </g>
   <g id="patch_12">
    <path d="M 150.66 19.942062 
Q 150.66 50.549746 150.66 80.039396 
" style="fill: none; stroke: #e040fb; stroke-linecap: round"/>
    <path d="M 152.66 76.039396 
L 150.66 80.039396 
L 148.66 76.039396 
" style="fill: none; stroke: #e040fb; stroke-linecap: round"/>
   </g>
   <g id="text_11">
    <!-- $α_1$ -->
    <g style="fill: #ffffff" transform="translate(144.96 13.86) scale(0.1 -0.1)">
     <use xlink:href="#DejaVuSans-Oblique-3b1" transform="translate(0 0.84375)"/>
     <use xlink:href="#DejaVuSans-31" transform="translate(65.917969 -15.5625) scale(0.7)"/>
    </g>
   </g>
   <g id="patch_13">
    <path d="M 251.1 19.942062 
Q 251.1 50.549746 251.1 80.039396 
" style="fill: none; stroke: #e040fb; stroke-linecap: round"/>
    <path d="M 253.1 76.039396 
L 251.1 80.039396 
L 249.1 76.039396 
" style="fill: none; stroke: #e040fb; stroke-linecap: round"/>
   </g>
   <g id="text_12">
    <!-- $α_2$ -->
    <g style="fill: #ffffff" transform="translate(245.4 13.86) scale(0.1 -0.1)">
     <use xlink:href="#DejaVuSans-Oblique-3b1" transform="translate(0 0.84375)"/>
     <use xlink:href="#DejaVuSans-32" transform="translate(65.917969 -15.5625) scale(0.7)"/>
    </g>
   </g>
   <g id="patch_14">
    <path d="M 351.54 19.942062 
Q 351.54 50.549746 351.54 80.039396 
" style="fill: none; stroke: #e040fb; stroke-linecap: round"/>
    <path d="M 353.54 76.039396 
L 351.54 80.039396 
L 349.54 76.039396 
" style="fill: none; stroke: #e040fb; stroke-linecap: round"/>
   </g>
   <g id="text_13">
    <!-- $α_3$ -->
    <g style="fill: #ffffff" transform="translate(345.84 13.86) scale(0.1 -0.1)">
     <use xlink:href="#DejaVuSans-Oblique-3b1" transform="translate(0 0.84375)"/>
     <use xlink:href="#DejaVuSans-33" transform="translate(65.917969 -15.5625) scale(0.7)"/>
    </g>
   </g>
   <g id="patch_15">
    <path d="M 451.98 19.942062 
Q 451.98 50.549746 451.98 80.039396 
" style="fill: none; stroke: #e040fb; stroke-linecap: round"/>
    <path d="M 453.98 76.039396 
L 451.98 80.039396 
L 449.98 76.039396 
" style="fill: none; stroke: #e040fb; stroke-linecap: round"/>
   </g>
   <g id="text_14">
    <!-- $α_4$ -->
    <g style="fill: #ffffff" transform="translate(446.28 13.86) scale(0.1 -0.1)">
     <use xlink:href="#DejaVuSans-Oblique-3b1" transform="translate(0 0.84375)"/>
     <use xlink:href="#DejaVuSans-34" transform="translate(65.917969 -15.5625) scale(0.7)"/>
    </g>
   </g>
   <g id="legend_1">
    <g id="patch_16">
     <path d="M 94.4875 133.6 
L 407.7125 133.6 
Q 409.7125 133.6 409.7125 131.6 
L 409.7125 117.921875 
Q 409.7125 115.921875 407.7125 115.921875 
L 94.4875 115.921875 
Q 92.4875 115.921875 92.4875 117.921875 
L 92.4875 131.6 
Q 92.4875 133.6 94.4875 133.6 
L 94.4875 133.6 
z
" style="fill: none; opacity: 0"/>
    </g>
    <g id="patch_17">
     <path d="M 96.4875 127.520313 
L 116.4875 127.520313 
L 116.4875 120.520313 
L 96.4875 120.520313 
z
" style="fill: #ff7f0e; stroke: #ff7f0e; stroke-linejoin: miter"/>
    </g>
    <g id="text_15">
     <!-- Qubit -->
     <g style="fill: #ffffff" transform="translate(124.4875 127.520313) scale(0.1 -0.1)">
      <defs>
       <path id="DejaVuSans-51" d="M 2522 4238 
Q 1834 4238 1429 3725 
Q 1025 3213 1025 2328 
Q 1025 1447 1429 934 
Q 1834 422 2522 422 
Q 3209 422 3611 934 
Q 4013 1447 4013 2328 
Q 4013 3213 3611 3725 
Q 3209 4238 2522 4238 
z
M 3406 84 
L 4238 -825 
L 3475 -825 
L 2784 -78 
Q 2681 -84 2626 -87 
Q 2572 -91 2522 -91 
Q 1538 -91 948 567 
Q 359 1225 359 2328 
Q 359 3434 948 4092 
Q 1538 4750 2522 4750 
Q 3503 4750 4090 4092 
Q 4678 3434 4678 2328 
Q 4678 1516 4351 937 
Q 4025 359 3406 84 
z
" transform="scale(0.015625)"/>
       <path id="DejaVuSans-75" d="M 544 1381 
L 544 3500 
L 1119 3500 
L 1119 1403 
Q 1119 906 1312 657 
Q 1506 409 1894 409 
Q 2359 409 2629 706 
Q 2900 1003 2900 1516 
L 2900 3500 
L 3475 3500 
L 3475 0 
L 2900 0 
L 2900 538 
Q 2691 219 2414 64 
Q 2138 -91 1772 -91 
Q 1169 -91 856 284 
Q 544 659 544 1381 
z
M 1991 3584 
L 1991 3584 
z
" transform="scale(0.015625)"/>
       <path id="DejaVuSans-62" d="M 3116 1747 
Q 3116 2381 2855 2742 
Q 2594 3103 2138 3103 
Q 1681 3103 1420 2742 
Q 1159 2381 1159 1747 
Q 1159 1113 1420 752 
Q 1681 391 2138 391 
Q 2594 391 2855 752 
Q 3116 1113 3116 1747 
z
M 1159 2969 
Q 1341 3281 1617 3432 
Q 1894 3584 2278 3584 
Q 2916 3584 3314 3078 
Q 3713 2572 3713 1747 
Q 3713 922 3314 415 
Q 2916 -91 2278 -91 
Q 1894 -91 1617 61 
Q 1341 213 1159 525 
L 1159 0 
L 581 0 
L 581 4863 
L 1159 4863 
L 1159 2969 
z
" transform="scale(0.015625)"/>
       <path id="DejaVuSans-69" d="M 603 3500 
L 1178 3500 
L 1178 0 
L 603 0 
L 603 3500 
z
M 603 4863 
L 1178 4863 
L 1178 4134 
L 603 4134 
L 603 4863 
z
" transform="scale(0.015625)"/>
       <path id="DejaVuSans-74" d="M 1172 4494 
L 1172 3500 
L 2356 3500 
L 2356 3053 
L 1172 3053 
L 1172 1153 
Q 1172 725 1289 603 
Q 1406 481 1766 481 
L 2356 481 
L 2356 0 
L 1766 0 
Q 1100 0 847 248 
Q 594 497 594 1153 
L 594 3053 
L 172 3053 
L 172 3500 
L 594 3500 
L 594 4494 
L 1172 4494 
z
" transform="scale(0.015625)"/>
      </defs>
      <use xlink:href="#DejaVuSans-51"/>
      <use xlink:href="#DejaVuSans-75" x="78.710938"/>
      <use xlink:href="#DejaVuSans-62" x="142.089844"/>
      <use xlink:href="#DejaVuSans-69" x="205.566406"/>
      <use xlink:href="#DejaVuSans-74" x="233.349609"/>
     </g>
    </g>
    <g id="patch_18">
     <path d="M 171.74375 127.520313 
L 191.74375 127.520313 
L 191.74375 120.520313 
L 171.74375 120.520313 
z
" style="fill: #2ca02c; stroke: #2ca02c; stroke-linejoin: miter"/>
    </g>
    <g id="text_16">
     <!-- Quantum Gate -->
     <g style="fill: #ffffff" transform="translate(199.74375 127.520313) scale(0.1 -0.1)">
      <defs>
       <path id="DejaVuSans-61" d="M 2194 1759 
Q 1497 1759 1228 1600 
Q 959 1441 959 1056 
Q 959 750 1161 570 
Q 1363 391 1709 391 
Q 2188 391 2477 730 
Q 2766 1069 2766 1631 
L 2766 1759 
L 2194 1759 
z
M 3341 1997 
L 3341 0 
L 2766 0 
L 2766 531 
Q 2569 213 2275 61 
Q 1981 -91 1556 -91 
Q 1019 -91 701 211 
Q 384 513 384 1019 
Q 384 1609 779 1909 
Q 1175 2209 1959 2209 
L 2766 2209 
L 2766 2266 
Q 2766 2663 2505 2880 
Q 2244 3097 1772 3097 
Q 1472 3097 1187 3025 
Q 903 2953 641 2809 
L 641 3341 
Q 956 3463 1253 3523 
Q 1550 3584 1831 3584 
Q 2591 3584 2966 3190 
Q 3341 2797 3341 1997 
z
" transform="scale(0.015625)"/>
       <path id="DejaVuSans-6e" d="M 3513 2113 
L 3513 0 
L 2938 0 
L 2938 2094 
Q 2938 2591 2744 2837 
Q 2550 3084 2163 3084 
Q 1697 3084 1428 2787 
Q 1159 2491 1159 1978 
L 1159 0 
L 581 0 
L 581 3500 
L 1159 3500 
L 1159 2956 
Q 1366 3272 1645 3428 
Q 1925 3584 2291 3584 
Q 2894 3584 3203 3211 
Q 3513 2838 3513 2113 
z
" transform="scale(0.015625)"/>
       <path id="DejaVuSans-6d" d="M 3328 2828 
Q 3544 3216 3844 3400 
Q 4144 3584 4550 3584 
Q 5097 3584 5394 3201 
Q 5691 2819 5691 2113 
L 5691 0 
L 5113 0 
L 5113 2094 
Q 5113 2597 4934 2840 
Q 4756 3084 4391 3084 
Q 3944 3084 3684 2787 
Q 3425 2491 3425 1978 
L 3425 0 
L 2847 0 
L 2847 2094 
Q 2847 2600 2669 2842 
Q 2491 3084 2119 3084 
Q 1678 3084 1418 2786 
Q 1159 2488 1159 1978 
L 1159 0 
L 581 0 
L 581 3500 
L 1159 3500 
L 1159 2956 
Q 1356 3278 1631 3431 
Q 1906 3584 2284 3584 
Q 2666 3584 2933 3390 
Q 3200 3197 3328 2828 
z
" transform="scale(0.015625)"/>
       <path id="DejaVuSans-20" transform="scale(0.015625)"/>
       <path id="DejaVuSans-47" d="M 3809 666 
L 3809 1919 
L 2778 1919 
L 2778 2438 
L 4434 2438 
L 4434 434 
Q 4069 175 3628 42 
Q 3188 -91 2688 -91 
Q 1594 -91 976 548 
Q 359 1188 359 2328 
Q 359 3472 976 4111 
Q 1594 4750 2688 4750 
Q 3144 4750 3555 4637 
Q 3966 4525 4313 4306 
L 4313 3634 
Q 3963 3931 3569 4081 
Q 3175 4231 2741 4231 
Q 1884 4231 1454 3753 
Q 1025 3275 1025 2328 
Q 1025 1384 1454 906 
Q 1884 428 2741 428 
Q 3075 428 3337 486 
Q 3600 544 3809 666 
z
" transform="scale(0.015625)"/>
       <path id="DejaVuSans-65" d="M 3597 1894 
L 3597 1613 
L 953 1613 
Q 991 1019 1311 708 
Q 1631 397 2203 397 
Q 2534 397 2845 478 
Q 3156 559 3463 722 
L 3463 178 
Q 3153 47 2828 -22 
Q 2503 -91 2169 -91 
Q 1331 -91 842 396 
Q 353 884 353 1716 
Q 353 2575 817 3079 
Q 1281 3584 2069 3584 
Q 2775 3584 3186 3129 
Q 3597 2675 3597 1894 
z
M 3022 2063 
Q 3016 2534 2758 2815 
Q 2500 3097 2075 3097 
Q 1594 3097 1305 2825 
Q 1016 2553 972 2059 
L 3022 2063 
z
" transform="scale(0.015625)"/>
      </defs>
      <use xlink:href="#DejaVuSans-51"/>
      <use xlink:href="#DejaVuSans-75" x="78.710938"/>
      <use xlink:href="#DejaVuSans-61" x="142.089844"/>
      <use xlink:href="#DejaVuSans-6e" x="203.369141"/>
      <use xlink:href="#DejaVuSans-74" x="266.748047"/>
      <use xlink:href="#DejaVuSans-75" x="305.957031"/>
      <use xlink:href="#DejaVuSans-6d" x="369.335938"/>
      <use xlink:href="#DejaVuSans-20" x="466.748047"/>
      <use xlink:href="#DejaVuSans-47" x="498.535156"/>
      <use xlink:href="#DejaVuSans-61" x="576.025391"/>
      <use xlink:href="#DejaVuSans-74" x="637.304688"/>
      <use xlink:href="#DejaVuSans-65" x="676.513672"/>
     </g>
    </g>
    <g id="patch_19">
     <path d="M 293.545313 127.520313 
L 313.545313 127.520313 
L 313.545313 120.520313 
L 293.545313 120.520313 
z
" style="fill: #e040fb; stroke: #e040fb; stroke-linejoin: miter"/>
    </g>
    <g id="text_17">
     <!-- Attention Weight -->
     <g style="fill: #ffffff" transform="translate(321.545313 127.520313) scale(0.1 -0.1)">
      <defs>
       <path id="DejaVuSans-41" d="M 2188 4044 
L 1331 1722 
L 3047 1722 
L 2188 4044 
z
M 1831 4666 
L 2547 4666 
L 4325 0 
L 3669 0 
L 3244 1197 
L 1141 1197 
L 716 0 
L 50 0 
L 1831 4666 
z
" transform="scale(0.015625)"/>
       <path id="DejaVuSans-6f" d="M 1959 3097 
Q 1497 3097 1228 2736 
Q 959 2375 959 1747 
Q 959 1119 1226 758 
Q 1494 397 1959 397 
Q 2419 397 2687 759 
Q 2956 1122 2956 1747 
Q 2956 2369 2687 2733 
Q 2419 3097 1959 3097 
z
M 1959 3584 
Q 2709 3584 3137 3096 
Q 3566 2609 3566 1747 
Q 3566 888 3137 398 
Q 2709 -91 1959 -91 
Q 1206 -91 779 398 
Q 353 888 353 1747 
Q 353 2609 779 3096 
Q 1206 3584 1959 3584 
z
" transform="scale(0.015625)"/>
       <path id="DejaVuSans-57" d="M 213 4666 
L 850 4666 
L 1831 722 
L 2809 4666 
L 3519 4666 
L 4500 722 
L 5478 4666 
L 6119 4666 
L 4947 0 
L 4153 0 
L 3169 4050 
L 2175 0 
L 1381 0 
L 213 4666 
z
" transform="scale(0.015625)"/>
       <path id="DejaVuSans-67" d="M 2906 1791 
Q 2906 2416 2648 2759 
Q 2391 3103 1925 3103 
Q 1463 3103 1205 2759 
Q 947 2416 947 1791 
Q 947 1169 1205 825 
Q 1463 481 1925 481 
Q 2391 481 2648 825 
Q 2906 1169 2906 1791 
z
M 3481 434 
Q 3481 -459 3084 -895 
Q 2688 -1331 1869 -1331 
Q 1566 -1331 1297 -1286 
Q 1028 -1241 775 -1147 
L 775 -588 
Q 1028 -725 1275 -790 
Q 1522 -856 1778 -856 
Q 2344 -856 2625 -561 
Q 2906 -266 2906 331 
L 2906 616 
Q 2728 306 2450 153 
Q 2172 0 1784 0 
Q 1141 0 747 490 
Q 353 981 353 1791 
Q 353 2603 747 3093 
Q 1141 3584 1784 3584 
Q 2172 3584 2450 3431 
Q 2728 3278 2906 2969 
L 2906 3500 
L 3481 3500 
L 3481 434 
z
" transform="scale(0.015625)"/>
       <path id="DejaVuSans-68" d="M 3513 2113 
L 3513 0 
L 2938 0 
L 2938 2094 
Q 2938 2591 2744 2837 
Q 2550 3084 2163 3084 
Q 1697 3084 1428 2787 
Q 1159 2491 1159 1978 
L 1159 0 
L 581 0 
L 581 4863 
L 1159 4863 
L 1159 2956 
Q 1366 3272 1645 3428 
Q 1925 3584 2291 3584 
Q 2894 3584 3203 3211 
Q 3513 2838 3513 2113 
z
" transform="scale(0.015625)"/>
      </defs>
      <use xlink:href="#DejaVuSans-41"/>
      <use xlink:href="#DejaVuSans-74" x="66.658203"/>
      <use xlink:href="#DejaVuSans-74" x="105.867188"/>
      <use xlink:href="#DejaVuSans-65" x="145.076172"/>
      <use xlink:href="#DejaVuSans-6e" x="206.599609"/>
      <use xlink:href="#DejaVuSans-74" x="269.978516"/>
      <use xlink:href="#DejaVuSans-69" x="309.1875"/>
      <use xlink:href="#DejaVuSans-6f" x="336.970703"/>
      <use xlink:href="#DejaVuSans-6e" x="398.152344"/>
      <use xlink:href="#DejaVuSans-20" x="461.53125"/>
      <use xlink:href="#DejaVuSans-57" x="493.318359"/>
      <use xlink:href="#DejaVuSans-65" x="586.320312"/>
      <use xlink:href="#DejaVuSans-69" x="647.84375"/>
      <use xlink:href="#DejaVuSans-67" x="675.626953"/>
      <use xlink:href="#DejaVuSans-68" x="739.103516"/>
      <use xlink:href="#DejaVuSans-74" x="802.482422"/>
     </g>
    </g>
   </g>
  </g>
 </g>
 <defs>
  <clipPath id="p329f4479c4">
   <rect x="0" y="0" width="502.2" height="138.6"/>
  </clipPath>
 </defs>
</svg>
